<svg xmlns="http://www.w3.org/2000/svg" xmlns:xlink="http://www.w3.org/1999/xlink" width="16px" height="14px" viewBox="0 0 15 14" version="1.1">
<g id="surface1">
<path style=" stroke:none;fill-rule:nonzero;fill:rgb(0%,0%,0%);fill-opacity:1;" d="M 0.246094 2.367188 C -0.0820312 2.027344 -0.0820312 1.472656 0.246094 1.132812 C 0.570312 0.789062 1.097656 0.789062 1.425781 1.132812 L 6.425781 6.382812 C 6.75 6.722656 6.75 7.277344 6.425781 7.621094 L 1.425781 12.871094 C 1.097656 13.210938 0.570312 13.210938 0.246094 12.871094 C -0.0820312 12.527344 -0.0820312 11.972656 0.246094 11.632812 L 4.652344 7 Z M 6.667969 11.375 L 14.167969 11.375 C 14.628906 11.375 15 11.765625 15 12.25 C 15 12.734375 14.628906 13.125 14.167969 13.125 L 6.667969 13.125 C 6.207031 13.125 5.832031 12.734375 5.832031 12.25 C 5.832031 11.765625 6.207031 11.375 6.667969 11.375 Z M 6.667969 11.375 "/>
</g>
</svg>
